{
  "source": "C:\\Users\\Peter\\Desktop\\stuff\\MIUN\\quantitative_research\\video_compression\\videos\\BVI-HD\\CarpetCircleFast_1920x1080_60fps.mp4",
  "output": "C:\\Users\\Peter\\Desktop\\stuff\\MIUN\\quantitative_research\\video_compression\\compressed_videos\\BVI-HD\\h264\\12\\CarpetCircleFast_1920x1080_60fps_h264.mp4",
  "codec": "h264",
  "ok": "Input #0, mov,mp4,m4a,3gp,3g2,mj2, from 'C:\\Users\\Peter\\Desktop\\stuff\\MIUN\\quantitative_research\\video_compression\\videos\\BVI-HD\\CarpetCircleFast_1920x1080_60fps.mp4':\n  Metadata:\n    major_brand     : isom\n    minor_version   : 512\n    compatible_brands: isomiso2avc1mp41\n    encoder         : Lavf54.28.101\n  Duration: 00:00:05.00, start: 0.000000, bitrate: 324759 kb/s\n  Stream #0:0[0x1](und): Video: h264 (High 4:4:4 Predictive) (avc1 / 0x31637661), yuv420p(progressive), 1920x1080, 324754 kb/s, 60 fps, 60 tbr, 60 tbn (default)\n    Metadata:\n      handler_name    : VideoHandler\n      vendor_id       : [0][0][0][0]\n[out#0/mp4 @ 0000017dc0e19a40] Codec AVOption b:a (set bitrate (in bits/s)) has not been used for any stream. The most likely reason is either wrong type (e.g. a video option with no video streams) or that it is a private option of some decoder which was not actually used for any stream.\nStream mapping:\n  Stream #0:0 -> #0:0 (h264 (native) -> h264 (libx264))\nPress [q] to stop, [?] for help\n[libx264 @ 0000017dc182d1c0] using cpu capabilities: MMX2 SSE2Fast SSSE3 SSE4.2 AVX FMA3 BMI2 AVX2\n[libx264 @ 0000017dc182d1c0] profile High, level 5.0, 4:2:0, 8-bit\n[libx264 @ 0000017dc182d1c0] 264 - core 165 r3222 b35605a - H.264/MPEG-4 AVC codec - Copyleft 2003-2025 - http://www.videolan.org/x264.html - options: cabac=1 ref=5 deblock=1:0:0 analyse=0x3:0x113 me=hex subme=8 psy=1 psy_rd=1.00:0.00 mixed_ref=1 me_range=16 chroma_me=1 trellis=2 8x8dct=1 cqm=0 deadzone=21,11 fast_pskip=1 chroma_qp_offset=-2 threads=18 lookahead_threads=3 sliced_threads=0 nr=0 decimate=1 interlaced=0 bluray_compat=0 constrained_intra=0 bframes=3 b_pyramid=2 b_adapt=1 b_bias=0 direct=3 weightb=1 open_gop=0 weightp=2 keyint=250 keyint_min=25 scenecut=40 intra_refresh=0 rc_lookahead=50 rc=cbr mbtree=1 bitrate=12000 ratetol=1.0 qcomp=0.60 qpmin=0 qpmax=69 qpstep=4 vbv_maxrate=12000 vbv_bufsize=12000 nal_hrd=none filler=0 ip_ratio=1.40 aq=1:1.00\nOutput #0, mp4, to 'C:\\Users\\Peter\\Desktop\\stuff\\MIUN\\quantitative_research\\video_compression\\compressed_videos\\BVI-HD\\h264\\12\\CarpetCircleFast_1920x1080_60fps_h264.mp4':\n  Metadata:\n    major_brand     : isom\n    minor_version   : 512\n    compatible_brands: isomiso2avc1mp41\n    encoder         : Lavf62.3.100\n  Stream #0:0(und): Video: h264 (avc1 / 0x31637661), yuv420p(tv, progressive), 1920x1080, q=2-31, 12000 kb/s, 60 fps, 15360 tbn (default)\n    Metadata:\n      encoder         : Lavc62.11.100 libx264\n      handler_name    : VideoHandler\n      vendor_id       : [0][0][0][0]\n    Side data:\n      cpb: bitrate max/min/avg: 12000000/0/12000000 buffer size: 12000000 vbv_delay: N/A\nframe=    0 fps=0.0 q=0.0 size=       0KiB time=N/A bitrate=N/A speed=N/A elapsed=0:00:00.53    \nframe=    0 fps=0.0 q=0.0 size=       0KiB time=N/A bitrate=N/A speed=N/A elapsed=0:00:01.10    \nframe=    1 fps=0.6 q=31.0 size=       0KiB time=N/A bitrate=N/A speed=N/A elapsed=0:00:01.65    \nframe=    5 fps=2.2 q=30.0 size=       0KiB time=00:00:00.05 bitrate=   7.7kbits/s speed=0.0221x elapsed=0:00:02.26    \nframe=   23 fps=8.0 q=27.0 size=     256KiB time=00:00:00.33 bitrate=6292.6kbits/s speed=0.115x elapsed=0:00:02.88    \nframe=   34 fps=9.7 q=26.0 size=     512KiB time=00:00:00.50 bitrate=8389.4kbits/s speed=0.142x elapsed=0:00:03.51    \nframe=   47 fps= 11 q=26.0 size=     512KiB time=00:00:00.75 bitrate=5592.9kbits/s speed=0.182x elapsed=0:00:04.11    \nframe=   51 fps= 11 q=26.0 size=     768KiB time=00:00:00.81 bitrate=7704.3kbits/s speed=0.175x elapsed=0:00:04.66    \nframe=   55 fps= 11 q=28.0 size=     768KiB time=00:00:00.88 bitrate=7122.8kbits/s speed=0.17x elapsed=0:00:05.20    \nframe=   69 fps= 12 q=29.0 size=    1280KiB time=00:00:01.11 bitrate=9390.6kbits/s speed=0.195x elapsed=0:00:05.71    \nframe=   73 fps= 12 q=29.0 size=    1536KiB time=00:00:01.18 bitrate=10633.8kbits/s speed=0.19x elapsed=0:00:06.23    \nframe=   86 fps= 13 q=30.0 size=    1792KiB time=00:00:01.38 bitrate=10612.4kbits/s speed=0.205x elapsed=0:00:06.76    \nframe=   91 fps= 13 q=29.0 size=    1792KiB time=00:00:01.48 bitrate=9896.9kbits/s speed=0.204x elapsed=0:00:07.27    \nframe=   94 fps= 12 q=29.0 size=    2048KiB time=00:00:01.53 bitrate=10941.9kbits/s speed=0.197x elapsed=0:00:07.78    \nframe=  110 fps= 13 q=29.0 size=    2560KiB time=00:00:01.80 bitrate=11651.1kbits/s speed=0.216x elapsed=0:00:08.31    \nframe=  115 fps= 13 q=29.0 size=    2560KiB time=00:00:01.88 bitrate=11135.5kbits/s speed=0.213x elapsed=0:00:08.83    \nframe=  134 fps= 14 q=27.0 size=    2816KiB time=00:00:02.20 bitrate=10485.9kbits/s speed=0.235x elapsed=0:00:09.35    \nframe=  135 fps= 14 q=27.0 size=    2816KiB time=00:00:02.21 bitrate=10407.1kbits/s speed=0.225x elapsed=0:00:09.86    \nframe=  155 fps= 15 q=27.0 size=    3072KiB time=00:00:02.48 bitrate=10134.0kbits/s speed=0.239x elapsed=0:00:10.39    \nframe=  159 fps= 14 q=27.0 size=    3072KiB time=00:00:02.61 bitrate=9617.7kbits/s speed=0.238x elapsed=0:00:10.99    \nframe=  173 fps= 15 q=27.0 size=    3328KiB time=00:00:02.85 bitrate=9566.1kbits/s speed=0.248x elapsed=0:00:11.50    \nframe=  185 fps= 15 q=27.0 size=    3584KiB time=00:00:03.05 bitrate=9626.4kbits/s speed=0.253x elapsed=0:00:12.06    \nframe=  193 fps= 15 q=27.0 size=    3840KiB time=00:00:03.18 bitrate=9882.0kbits/s speed=0.252x elapsed=0:00:12.61    \nframe=  201 fps= 15 q=27.0 size=    3840KiB time=00:00:03.31 bitrate=9484.7kbits/s speed=0.252x elapsed=0:00:13.13    \nframe=  213 fps= 16 q=28.0 size=    4352KiB time=00:00:03.51 bitrate=10138.0kbits/s speed=0.257x elapsed=0:00:13.67    \nframe=  221 fps= 16 q=28.0 size=    4608KiB time=00:00:03.58 bitrate=10534.6kbits/s speed=0.252x elapsed=0:00:14.21    \nframe=  229 fps= 15 q=29.0 size=    4864KiB time=00:00:03.78 bitrate=10532.1kbits/s speed=0.256x elapsed=0:00:14.79    \nframe=  244 fps= 16 q=28.0 size=    5120KiB time=00:00:04.03 bitrate=10399.2kbits/s speed=0.263x elapsed=0:00:15.33    \nframe=  260 fps= 16 q=26.0 size=    5376KiB time=00:00:04.30 bitrate=10242.0kbits/s speed=0.271x elapsed=0:00:15.85    \nframe=  275 fps= 17 q=25.0 size=    5632KiB time=00:00:04.55 bitrate=10140.2kbits/s speed=0.278x elapsed=0:00:16.39    \nframe=  281 fps= 17 q=24.0 size=    5888KiB time=00:00:04.65 bitrate=10373.1kbits/s speed=0.275x elapsed=0:00:16.93    \nframe=  299 fps= 17 q=-1.0 size=    6144KiB time=00:00:04.95 bitrate=10168.1kbits/s speed=0.283x elapsed=0:00:17.46    \n[mp4 @ 0000017dc0e19b80] Starting second pass: moving the moov atom to the beginning of the file\n[out#0/mp4 @ 0000017dc0e19a40] video:6372KiB audio:0KiB subtitle:0KiB other streams:0KiB global headers:0KiB muxing overhead: 0.066560%\nframe=  300 fps= 17 q=-1.0 Lsize=    6376KiB time=00:00:04.96 bitrate=10517.0kbits/s speed=0.283x elapsed=0:00:17.58    \n[libx264 @ 0000017dc182d1c0] frame I:2     Avg QP:22.21  size: 78206\n[libx264 @ 0000017dc182d1c0] frame P:91    Avg QP:24.22  size: 51123\n[libx264 @ 0000017dc182d1c0] frame B:207   Avg QP:25.79  size:  8288\n[libx264 @ 0000017dc182d1c0] consecutive B-frames:  5.0%  4.0% 15.0% 76.0%\n[libx264 @ 0000017dc182d1c0] mb I  I16..4:  3.2% 96.2%  0.6%\n[libx264 @ 0000017dc182d1c0] mb P  I16..4:  1.1% 34.6%  1.0%  P16..4: 44.3%  5.8%  3.0%  0.0%  0.0%    skip:10.2%\n[libx264 @ 0000017dc182d1c0] mb B  I16..4:  0.1%  0.9%  0.0%  B16..8: 31.0%  1.5%  0.3%  direct: 5.2%  skip:61.1%  L0:45.9% L1:51.6% BI: 2.5%\n[libx264 @ 0000017dc182d1c0] 8x8 transform intra:94.4% inter:89.5%\n[libx264 @ 0000017dc182d1c0] direct mvs  spatial:95.2% temporal:4.8%\n[libx264 @ 0000017dc182d1c0] coded y,uvDC,uvAC intra: 87.9% 78.5% 11.6% inter: 15.1% 26.7% 0.1%\n[libx264 @ 0000017dc182d1c0] i16 v,h,dc,p:  7% 49%  1% 43%\n[libx264 @ 0000017dc182d1c0] i8 v,h,dc,ddl,ddr,vr,hd,vl,hu: 12% 17% 13%  7%  7%  8% 13%  9% 14%\n[libx264 @ 0000017dc182d1c0] i4 v,h,dc,ddl,ddr,vr,hd,vl,hu: 12% 10%  1%  7% 17% 17% 19%  7%  9%\n[libx264 @ 0000017dc182d1c0] i8c dc,h,v,p: 31% 19% 36% 13%\n[libx264 @ 0000017dc182d1c0] Weighted P-Frames: Y:4.4% UV:4.4%\n[libx264 @ 0000017dc182d1c0] ref P L0: 70.8% 21.0%  5.5%  1.6%  1.1%  0.0%\n[libx264 @ 0000017dc182d1c0] ref B L0: 97.8%  1.5%  0.5%  0.2%\n[libx264 @ 0000017dc182d1c0] ref B L1: 99.9%  0.1%\n[libx264 @ 0000017dc182d1c0] kb/s:10438.68\n",
  "seconds": 18.02438521385193,
  "probe_out": {}
}